<?xml version="1.0" encoding="UTF-8" standalone="no"?>
<svg
   viewBox="-0.03 -0.03 85.042997 85.040002"
   version="1.1"
   id="svg7"
   sodipodi:docname="-yjmM0x-alior-bank.svg"
   width="85.042999"
   height="85.040001"
   inkscape:version="1.4 (86a8ad7, 2024-10-11)"
   xmlns:inkscape="http://www.inkscape.org/namespaces/inkscape"
   xmlns:sodipodi="http://sodipodi.sourceforge.net/DTD/sodipodi-0.dtd"
   xmlns="http://www.w3.org/2000/svg"
   xmlns:svg="http://www.w3.org/2000/svg">
  <defs
     id="defs7" />
  <sodipodi:namedview
     id="namedview7"
     pagecolor="#ffffff"
     bordercolor="#000000"
     borderopacity="0.25"
     inkscape:showpageshadow="2"
     inkscape:pageopacity="0.0"
     inkscape:pagecheckerboard="0"
     inkscape:deskcolor="#d1d1d1"
     inkscape:zoom="6.5060472"
     inkscape:cx="-6.2249779"
     inkscape:cy="48.032237"
     inkscape:window-width="1920"
     inkscape:window-height="1001"
     inkscape:window-x="-9"
     inkscape:window-y="-9"
     inkscape:window-maximized="1"
     inkscape:current-layer="svg7" />
  <radialGradient
     id="a"
     cx="42.519001"
     cy="42.52"
     r="42.519001"
     gradientUnits="userSpaceOnUse"
     gradientTransform="translate(-0.92221894,-0.30740631)">
    <stop
       offset="0"
       stop-color="#F2CB72"
       id="stop1" />
    <stop
       offset="1"
       stop-color="#EFBC32"
       id="stop2" />
  </radialGradient>
  <linearGradient
     id="b"
     x1="-101.919"
     x2="-186.96201"
     y1="-229.481"
     y2="-229.481"
     gradientTransform="translate(186.932,271.97)"
     gradientUnits="userSpaceOnUse">
    <stop
       offset=".5"
       stop-color="#6B113D"
       id="stop3" />
    <stop
       offset="1"
       stop-color="#490724"
       id="stop4" />
  </linearGradient>
  <path
     fill="url(#b)"
     d="M -0.03,-0.03 H 85.013 V 85.01 H -0.028 Z"
     id="path4"
     style="fill:url(#b)" />
  <path
     fill="#ffffff"
     d="M 28.562,42.492 V 54.83 h 6.592 v 1.88 H 25.447 V 42.493 h 3.115 z m 12.107,0 v 14.22 H 37.554 V 42.49 h 3.115 z m 19.805,7.023 c 0,4.465 -3.432,7.49 -8.5,7.49 -2.22,0 -4.102,-0.63 -5.47,-1.795 -1.53,-1.305 -2.427,-3.318 -2.427,-5.496 0,-2.31 0.945,-4.238 2.738,-5.604 1.703,-1.303 3.5,-1.887 5.785,-1.887 4.733,0 7.874,2.92 7.874,7.292 z m -13.12,-0.092 c 0,3.366 2.177,5.807 5.138,5.807 1.074,0 2.13,-0.38 2.957,-1.053 1.168,-0.98 1.75,-2.396 1.75,-4.256 0,-3.505 -2.13,-5.92 -5.178,-5.92 -2.76,0 -4.67,2.22 -4.67,5.423 z m 16.483,-6.931 c 3.566,-0.063 5.338,-0.105 5.338,-0.105 2.354,0 3.408,0.176 4.35,0.76 1.188,0.736 1.77,1.79 1.77,3.18 0,1.865 -1.41,3.29 -3.604,3.933 1.972,4.088 3.603,5.4 5.376,5.268 l 0.068,0.11 -0.23,0.896 c -0.066,0.293 -0.67,0.45 -1.744,0.45 -1.71,0 -2.96,-0.698 -4.13,-2.31 -0.624,-0.88 -1.208,-1.947 -2.196,-3.973 -0.402,0.022 -0.693,0.048 -1.14,0.048 -0.25,0 -0.433,0 -0.74,-0.025 v 5.988 H 63.837 V 42.493 Z m 3.12,6.615 c 1.185,0.047 1.454,0.047 1.63,0.047 2.36,0 3.434,-0.83 3.434,-2.643 0,-1.1 -0.47,-1.838 -1.37,-2.176 -0.445,-0.18 -0.963,-0.246 -2.082,-0.246 -0.604,0 -0.72,0 -1.613,0.023 v 4.997 z"
     id="path5" />
  <path
     fill="#eebb31"
     d="m 11.262,62.336 c 1.188,-0.02 1.23,-0.02 2.192,-0.04 0.81,-0.024 1.453,-0.024 1.79,-0.024 2.034,0 3.02,0.22 3.804,0.893 0.666,0.607 1.053,1.45 1.053,2.395 0,1.475 -0.696,2.39 -2.26,2.992 1.01,0.178 1.474,0.342 1.99,0.693 0.937,0.63 1.497,1.75 1.497,2.953 0,1.61 -0.918,3.02 -2.393,3.715 -1.053,0.477 -2.082,0.604 -4.654,0.604 h -3.02 v -14.18 z m 3.628,6.017 c 1.406,0 1.965,-0.137 2.504,-0.604 0.535,-0.474 0.805,-1.1 0.805,-1.92 0,-0.923 -0.338,-1.618 -0.965,-2.042 -0.467,-0.287 -1.07,-0.424 -2.145,-0.424 -0.607,0 -0.873,0 -2.082,0.09 v 4.898 h 1.883 z m 0.063,7.024 c 1.68,0 2.753,-0.266 3.472,-0.85 0.648,-0.535 1.006,-1.293 1.006,-2.15 0,-1.12 -0.56,-2.014 -1.5,-2.46 -0.65,-0.312 -1.633,-0.446 -3.063,-0.446 h -1.86 v 5.886 l 1.946,0.02 z m 15.742,-13.041 5.48,14.18 h -1.906 l -1.674,-4.584 h -6.176 l -1.9,4.584 h -1.793 l 6.582,-14.18 z m -1.012,1.84 -2.79,6.66 h 5.277 l -2.486,-6.66 z m 10.119,-1.84 9.666,11.273 -0.316,-11.274 h 1.57 l -0.025,14.117 -0.76,0.266 -10.225,-11.812 0.332,11.607 h -1.563 v -14.18 h 1.32 z m 17.45,0 v 14.18 h -1.747 v -14.18 h 1.746 z m 9.44,0 -7.272,6.303 7.61,7.876 h -2.464 l -7.207,-7.584 7.072,-6.596 h 2.26 z"
     id="path6" />
  <path
     fill="#ffffff"
     d="m 16.714,41.898 h -4.802 l -0.157,0.137 c 0,0 -0.37,1.197 -0.398,1.488 0.045,0.572 2.744,0.05 2.744,0.05 L 7.858,56.711 h 2.736 l 1.434,-3.503 h 6.068 l 1.277,3.504 h 3.428 L 16.713,41.9 Z m -4.03,9.7 2.478,-6.177 2.28,6.177 h -4.757 z"
     id="path7" />
</svg>
