<svg width="114" height="46" viewBox="0 0 114 46" fill="none" xmlns="http://www.w3.org/2000/svg">
<g clip-path="url(#clip0_4527_689)">
<rect x="4.49609" y="4.23193" width="19.859" height="18.584" fill="white"/>
<path d="M102.074 8.86992C102.074 9.60747 101.996 10.4421 101.762 11.102C101.216 13.0235 100.028 14.518 97.8646 14.518H93.1292V2.32899C93.3241 2.29017 94.3569 2.21254 95.0974 2.21254C98.4102 2.21254 100.612 3.62941 101.567 6.05557C101.898 6.9484 102.074 7.89946 102.074 8.86992ZM113.766 26.8429C111.603 26.3383 110.921 25.659 107.511 21.9712L103.477 17.6235C102.405 16.4395 101.898 16.0125 101.197 15.5467C104.12 14.6927 106.634 11.7037 106.634 8.01591C106.634 4.59988 104.627 1.66908 101.041 0.718021C99.5794 0.291016 97.8451 0.135742 95.7989 0.135742C93.9866 0.135742 93.0902 0.213379 91.5118 0.213379C89.6994 0.213379 85.2564 0.135742 85.2564 0.135742V1.47498L86.4061 1.70789C88.5302 2.17372 88.7251 2.25135 88.7641 3.12477C88.803 4.0176 88.803 5.62857 88.803 7.51127V20.6125C88.803 22.4952 88.803 24.1062 88.7641 24.999C88.7251 25.853 88.5302 25.9501 86.4061 26.4159L85.2564 26.6488V27.9881H96.6759V26.6488L95.5261 26.4159C93.441 25.9501 93.2071 25.8725 93.1682 24.999C93.1292 24.1062 93.1292 22.4952 93.1292 20.6125V16.6919H96.8318C97.3774 17.1189 97.6892 17.4682 98.4882 18.3805L102.386 23.0193C106.439 27.7746 108.017 28.4733 113.259 28.2404L113.766 26.8429ZM80.8328 0.135742H60.4687V1.47498L61.6184 1.70789C64.2492 2.17372 64.5415 2.25135 64.5805 3.12477C64.6195 4.0176 64.6195 5.62857 64.6195 7.51127V20.6125C64.6195 22.4952 64.6195 24.1062 64.5805 24.999C64.5415 25.853 64.3077 25.9501 62.2225 26.4159L61.0728 26.6488V27.9881H72.4923V26.6488L71.3425 26.4159C69.2184 25.9889 69.0236 25.9113 68.9846 25.0379C68.9456 24.145 68.9456 22.4952 68.9456 20.6125V15.5855C72.3754 15.5855 74.8892 15.6243 75.7661 15.7408C76.5456 15.8184 76.721 15.9737 76.9159 16.6919C77.2277 17.837 77.3056 18.2252 77.5005 19.1568H78.8061V10.3256H77.5005C77.2277 11.5096 77.1497 12.0142 76.9159 12.8294C76.76 13.3341 76.4871 13.3729 75.7661 13.4505C74.7333 13.6058 72.2974 13.6446 68.9456 13.6446V2.07667C77.8902 2.07667 78.3969 2.38722 78.7087 3.76528C78.9425 4.75515 79.0205 5.57034 79.2543 7.02604H80.6769C80.8328 4.40578 80.9107 2.05726 80.8328 0.135742ZM57.9938 8.09355C57.9938 4.6387 55.9866 1.78553 52.362 0.795658C50.5497 0.291017 48.8543 0.135742 45.3856 0.135742H37.123V1.47498L38.2728 1.70789C40.3969 2.17372 40.5918 2.25135 40.6307 3.12477C40.6697 4.0176 40.6697 5.62857 40.6697 7.51127V20.6125C40.6697 22.4952 40.6697 24.1062 40.6307 24.999C40.5918 25.853 40.3969 25.9501 38.2728 26.4159L37.123 26.6488V27.9881H48.523V26.6488L47.3733 26.4159C45.2882 25.9501 45.0543 25.8725 45.0154 24.999C44.9764 24.1062 44.9764 22.4952 44.9764 20.6125V2.29017C45.1323 2.29017 45.8728 2.21254 46.5159 2.21254C49.8677 2.21254 51.9918 3.74587 52.9856 6.17203C53.3364 7.02604 53.4533 7.89946 53.4533 8.96697C53.4533 11.0438 52.7907 13.2758 50.9395 14.421C49.7897 15.1585 48.2697 15.4108 46.4184 15.275V16.7307C53.6092 17.9341 57.9938 13.5864 57.9938 8.09355Z" fill="#626769"/>
<path d="M21.5527 27.755H0.798828V5.60904C0.798828 2.62001 3.21524 0.193848 6.21626 0.193848H28.3927V20.9424C28.3927 24.6884 25.3332 27.755 21.5527 27.755ZM5.59267 10.5002C12.5691 7.2006 21.2604 14.4597 23.8132 5.57022C16.2911 7.68583 9.29524 2.11537 5.59267 10.5002ZM5.59267 16.4976C11.1075 14.0909 16.7199 19.7196 19.9742 12.8875C14.0306 14.4403 8.51575 10.3643 5.59267 16.4976ZM5.59267 21.777C9.41216 20.069 13.3096 24.0673 15.5506 19.2149C11.4388 20.3019 7.61934 17.4099 5.59267 21.777Z" fill="#B61929"/>
<path d="M113.961 42.8748L113.532 42.7583C113.298 42.7001 113.24 42.6225 113.22 42.409C113.201 42.1761 113.201 41.6714 113.201 41.1862V38.236H113.104C112.636 38.236 112.09 38.3136 111.447 38.5465V38.76L111.876 38.8765C112.11 38.9347 112.168 39.0124 112.188 39.2259C112.207 39.4588 112.207 39.9634 112.207 40.4486V42.2925C111.993 42.5448 111.545 42.7389 111.018 42.7389C110.083 42.7389 109.966 42.1761 109.966 40.9727V38.236H109.849C109.401 38.236 108.836 38.3136 108.193 38.5465V38.76L108.621 38.8765C108.855 38.9347 108.914 39.0124 108.933 39.2259C108.953 39.4588 108.953 39.9634 108.953 40.4486V41.4967C108.953 42.8748 109.479 43.4959 110.59 43.4959C111.35 43.4959 111.934 43.1465 112.246 42.5642V43.3794H112.324C112.772 43.3794 113.337 43.3018 113.98 43.0689V42.8748H113.961ZM107.257 36.3921C107.257 36.0233 107.043 35.7322 106.614 35.7322C106.263 35.7322 105.971 35.9651 105.971 36.3921C105.971 36.7609 106.186 37.052 106.614 37.052C106.965 37.052 107.257 36.8191 107.257 36.3921ZM107.238 38.236H107.14C106.692 38.236 106.127 38.3136 105.484 38.5465V38.76L105.913 38.8765C106.147 38.9347 106.205 39.0124 106.225 39.2259C106.244 39.4588 106.244 39.9634 106.244 40.4486V42.4284C106.244 43.9811 106.03 44.7769 105.036 45.6697L105.25 45.9415C106.536 45.2039 107.257 44.2917 107.257 42.6031V38.236H107.238ZM103.867 40.9921C103.867 42.1567 103.399 42.933 102.541 42.933C101.509 42.933 101.002 41.9431 101.002 40.7204C101.002 39.7499 101.255 38.7406 102.327 38.7406C102.873 38.7406 103.224 38.9347 103.516 39.3811C103.769 39.7499 103.867 40.2545 103.867 40.9921ZM104.977 40.6815C104.977 40.1575 104.88 39.6334 104.646 39.2453C104.217 38.5271 103.555 38.1777 102.6 38.1777C102.015 38.1777 101.47 38.3524 101.021 38.6436C100.281 39.1482 99.9497 39.9052 99.9497 40.8951C99.9497 42.4478 100.807 43.4571 102.425 43.4571C103.808 43.4571 104.977 42.4672 104.977 40.6815ZM99.7743 38.5853V38.2748H97.5137V38.5853L98.0399 38.7406C98.3127 38.8183 98.3712 38.9153 98.2932 39.1482L97.3968 42.2149L95.8379 38.2942H95.4091L94.1814 42.1955L92.9343 39.0123C92.8563 38.8183 92.9148 38.7406 93.1486 38.6824L93.6358 38.5659V38.2554H91.1804V38.5659L91.5117 38.663C91.6871 38.7212 91.7066 38.7988 91.7845 38.9541L93.363 42.7389C93.5384 43.1853 93.5579 43.3018 93.6358 43.5347C94.1425 43.3988 94.2399 43.2824 94.4153 42.836L95.4871 39.944L96.5979 42.7778C96.7538 43.1853 96.7927 43.3212 96.8512 43.5347C97.3579 43.4183 97.4553 43.263 97.6696 42.7778C98.0204 41.9237 98.7025 40.0605 99.0727 39.1094C99.2091 38.76 99.2871 38.7212 99.4625 38.6824L99.7743 38.5853ZM90.4204 38.2748H87.5168C86.9907 38.2748 86.445 38.236 86.445 38.236C86.4061 38.76 86.4256 39.4005 86.5035 39.9052H86.8153L86.8932 39.4199C86.9712 38.9347 87.1466 38.7794 87.5168 38.76L89.1927 38.7212L86.7958 42.3896C86.4645 42.933 86.4061 43.0689 86.4061 43.3212V43.36H90.6738C90.7127 42.7972 90.6932 42.2731 90.5958 41.652H90.284L90.2061 42.0596C90.1086 42.5837 89.9527 42.8166 89.5435 42.8166L87.6922 42.8942L90.0696 39.187C90.362 38.7406 90.4204 38.5271 90.4204 38.2942V38.2748ZM84.5548 40.9921C84.5548 42.1567 84.0871 42.933 83.2297 42.933C82.1968 42.933 81.6902 41.9431 81.6902 40.7204C81.6902 39.7499 81.9435 38.7406 83.0153 38.7406C83.5609 38.7406 83.9117 38.9347 84.204 39.3811C84.4379 39.7499 84.5548 40.2545 84.5548 40.9921ZM85.6461 40.6815C85.6461 40.1575 85.5486 39.6334 85.3148 39.2453C84.8861 38.5271 84.2235 38.1777 83.2686 38.1777C82.684 38.1777 82.1384 38.3524 81.6902 38.6436C80.9497 39.1482 80.6184 39.9052 80.6184 40.8951C80.6184 42.4478 81.4758 43.4571 83.0932 43.4571C84.4768 43.4571 85.6461 42.4672 85.6461 40.6815ZM77.325 38.4301C77.325 38.6242 77.3055 38.8377 77.2471 39.0123C77.1107 39.517 76.7989 39.8858 76.2337 39.8858H75.0255V36.7415C75.084 36.7221 75.3373 36.7026 75.5322 36.7026C76.3896 36.7026 76.9548 37.0714 77.2081 37.6925C77.2861 37.9448 77.325 38.1777 77.325 38.4301ZM80.3456 43.0689C79.7804 42.933 79.605 42.7583 78.7281 41.8073L77.6953 40.6815C77.4225 40.371 77.2861 40.274 77.1107 40.1381C77.8707 39.9246 78.5138 39.1482 78.5138 38.1972C78.5138 37.3237 77.9876 36.5474 77.0717 36.3145C76.7014 36.198 76.2532 36.1592 75.7271 36.1592C75.2594 36.1592 75.0255 36.1786 74.6163 36.1786C74.1486 36.1786 72.9989 36.1592 72.9989 36.1592V36.5086L73.2912 36.5668C73.8368 36.6832 73.8953 36.7026 73.8953 36.9356C73.9148 37.1685 73.9148 37.5761 73.9148 38.0613V41.4385C73.9148 41.9237 73.9148 42.3313 73.8953 42.5642C73.8758 42.7778 73.8368 42.8166 73.2912 42.933L72.9989 42.9913V43.3406H75.9414V42.9913L75.6491 42.933C75.1035 42.8166 75.045 42.7972 75.045 42.5642C75.0255 42.3313 75.0255 41.9237 75.0255 41.4385V40.4292H75.9804C76.1168 40.5457 76.1948 40.6233 76.4091 40.8562L77.4225 42.0596C78.4748 43.2824 78.884 43.4765 80.2286 43.3988L80.3456 43.0689ZM69.7056 38.2748H66.802C66.2758 38.2748 65.7302 38.236 65.7302 38.236C65.6912 38.76 65.7107 39.4005 65.7886 39.9052H66.1004L66.1784 39.4199C66.2563 38.9347 66.4317 38.7794 66.802 38.76L68.4779 38.7212L66.0809 42.3896C65.7496 42.933 65.6912 43.0689 65.6912 43.3212V43.36H69.9589C69.9979 42.7972 69.9784 42.2731 69.8809 41.652H69.5691L69.4912 42.0596C69.3938 42.5837 69.2379 42.8166 68.8286 42.8166L66.9384 42.8748L69.3158 39.1676C69.6081 38.7212 69.6666 38.5077 69.6666 38.2748H69.7056ZM64.9117 41.8655C64.9117 41.2056 64.4245 40.7398 63.6061 40.4098L63.2748 40.274C62.4953 39.9634 62.3199 39.6529 62.3199 39.3229C62.3199 38.9541 62.6122 38.6436 63.2358 38.6436C63.4307 38.6436 63.645 38.6824 63.8399 38.7406C64.0543 38.8377 64.1322 39.0123 64.2491 39.4394L64.3271 39.6917H64.6389C64.6779 39.2258 64.6779 38.7794 64.6194 38.2942C64.0932 38.2748 63.7814 38.1972 63.2943 38.1972C62.0861 38.1972 61.4235 38.9153 61.4235 39.6917C61.4235 40.274 61.7158 40.798 62.5732 41.1474L62.885 41.2832C63.7035 41.6132 63.9179 41.9043 63.9179 42.2343C63.9179 42.6419 63.5866 42.9913 62.9435 42.9913C62.6122 42.9913 62.3004 42.933 62.1055 42.836C61.8522 42.7389 61.7938 42.5837 61.7353 42.2149L61.6573 41.8849H61.3066C61.2481 42.2731 61.2286 42.8166 61.3066 43.3212C61.8132 43.3988 62.3394 43.4765 62.8656 43.4765C64.2686 43.4765 64.9117 42.6419 64.9117 41.8655ZM60.4881 42.8748L60.0594 42.7583C59.8256 42.7001 59.7671 42.6225 59.7476 42.409C59.7281 42.1761 59.7281 41.6714 59.7281 41.1862V38.236H59.6307C59.163 38.236 58.6173 38.3136 57.9743 38.5465V38.76L58.403 38.8765C58.6368 38.9347 58.6953 39.0124 58.7148 39.2259C58.7343 39.4588 58.7343 39.9634 58.7343 40.4486V42.2925C58.5199 42.5448 58.0717 42.7389 57.5455 42.7389C56.6102 42.7389 56.4932 42.1761 56.4932 40.9727V38.236H56.3763C55.9281 38.236 55.363 38.3136 54.7199 38.5465V38.76L55.1486 38.8765C55.3825 38.9347 55.4409 39.0124 55.4604 39.2259C55.4799 39.4588 55.4799 39.9634 55.4799 40.4486V41.4967C55.4799 42.8748 56.0061 43.4959 57.1168 43.4959C57.8768 43.4959 58.4614 43.1465 58.7732 42.5642V43.3794H58.8512C59.2994 43.3794 59.8645 43.3018 60.5076 43.0689V42.8748H60.4881ZM52.6738 38.9347V42.3702C52.4789 42.5837 52.0502 42.7583 51.6409 42.7583C50.764 42.7583 50.1404 42.0014 50.1404 40.6427C50.1404 39.944 50.3158 39.3229 50.7055 39.0123C50.8809 38.8765 51.1538 38.7406 51.5435 38.7406C51.9527 38.76 52.362 38.8377 52.6738 38.9347ZM54.4471 42.8942L54.0184 42.7972C53.7845 42.7389 53.7261 42.6613 53.7066 42.4478C53.6871 42.1955 53.6871 41.7102 53.6871 41.225V35.5381H53.5896C53.122 35.5381 52.5763 35.6157 51.9332 35.8486V36.0621L52.362 36.1786C52.5958 36.2368 52.6543 36.3145 52.6738 36.528C52.6932 36.7609 52.6932 37.2655 52.6932 37.7507V38.2554C52.4399 38.2166 52.1866 38.1777 51.9332 38.1777C51.1732 38.1777 50.6471 38.333 50.1209 38.7018C49.4389 39.2064 49.0881 40.0216 49.0881 41.0115C49.0881 42.4672 49.9261 43.4765 51.1148 43.4765C51.7773 43.4765 52.4009 43.1465 52.6932 42.6613V43.4377H52.7712C53.2389 43.4377 53.7845 43.36 54.4276 43.1271V42.8942H54.4471ZM48.523 43.3794V43.0689L48.1332 42.9524C47.9189 42.8748 47.8994 42.8554 47.8799 42.6225C47.8604 42.3507 47.8604 41.8267 47.8604 41.3026V40.1769C47.8604 38.7794 47.3538 38.1777 46.2235 38.1777C45.4635 38.1777 44.8594 38.5271 44.5476 39.0706V38.236H44.4697C44.002 38.236 43.4563 38.3136 42.8132 38.5465V38.76L43.242 38.8765C43.4758 38.9347 43.5343 39.0124 43.5538 39.2259C43.5732 39.4588 43.5732 39.9634 43.5732 40.4486V41.3026C43.5732 41.8267 43.5732 42.3313 43.5538 42.6031C43.5343 42.8554 43.5148 42.8748 43.3004 42.933L42.9107 43.0495V43.36H45.2491V43.0495L44.8204 42.9136C44.6255 42.836 44.6061 42.836 44.5866 42.5837C44.5671 42.3119 44.5671 41.8073 44.5671 41.2832V39.3617C44.8009 39.1094 45.2296 38.9153 45.7558 38.9153C46.6912 38.9153 46.8276 39.4782 46.8276 40.6815V41.2832C46.8276 41.8073 46.8276 42.3119 46.8081 42.5837C46.7886 42.8554 46.7691 42.8554 46.5743 42.933L46.1455 43.0689V43.3794H48.523ZM42.0922 42.8748L41.6635 42.7583C41.4296 42.7001 41.3712 42.6225 41.3517 42.409C41.3322 42.1761 41.3322 41.6714 41.3322 41.1862V38.236H41.2348C40.7671 38.236 40.2214 38.3136 39.5784 38.5465V38.76L40.0071 38.8765C40.2409 38.9347 40.2994 39.0124 40.3189 39.2259C40.3384 39.4588 40.3384 39.9634 40.3384 40.4486V42.2925C40.124 42.5448 39.6758 42.7389 39.1497 42.7389C38.2143 42.7389 38.0973 42.1761 38.0973 40.9727V38.236H37.9804C37.5322 38.236 36.9671 38.3136 36.324 38.5465V38.76L36.7527 38.8765C36.9866 38.9347 37.045 39.0124 37.0645 39.2259C37.084 39.4588 37.084 39.9634 37.084 40.4486V41.4967C37.084 42.8748 37.6102 43.4959 38.7209 43.4959C39.4809 43.4959 40.0655 43.1465 40.3773 42.5642V43.3794H40.4553C40.9035 43.3794 41.4686 43.3018 42.1117 43.0689V42.8748H42.0922ZM35.5835 36.1786H30.322V36.528L30.6143 36.5862C31.2963 36.7026 31.3743 36.7221 31.3743 36.955C31.3938 37.1879 31.3938 37.5955 31.3938 38.0807V41.4579C31.3938 41.9431 31.3938 42.3507 31.3743 42.5837C31.3548 42.7972 31.2963 42.836 30.7702 42.9524L30.4779 43.0107V43.36H33.4204V43.0107L33.1281 42.9524C32.5825 42.836 32.524 42.8166 32.524 42.6031C32.5045 42.3702 32.5045 41.9431 32.5045 41.4579V40.1769C33.3814 40.1769 34.044 40.1963 34.2584 40.2157C34.4532 40.2351 34.5117 40.274 34.5507 40.468C34.6286 40.7592 34.6481 40.8562 34.7066 41.1086H35.0379V38.8183H34.7066C34.6286 39.1288 34.6091 39.2453 34.5507 39.4588C34.5117 39.5946 34.4338 39.5946 34.2584 39.614C33.9855 39.6529 33.362 39.6723 32.5045 39.6723V36.6832C34.804 36.6832 34.9404 36.7609 35.0184 37.1102C35.0768 37.3626 35.0963 37.5761 35.1548 37.9448H35.525C35.5835 37.2849 35.603 36.6832 35.5835 36.1786ZM26.9507 36.3921C26.9507 36.0233 26.7363 35.7322 26.3076 35.7322C25.9568 35.7322 25.6645 35.9651 25.6645 36.3921C25.6645 36.7609 25.8594 37.052 26.3076 37.052C26.6584 37.052 26.9507 36.8191 26.9507 36.3921ZM27.5353 43.3794V43.0689L27.1455 42.9524C26.9312 42.8748 26.9117 42.8554 26.8922 42.6225C26.8727 42.3507 26.8727 41.8267 26.8727 41.3026V38.236H26.7753C26.3271 38.236 25.762 38.3136 25.1189 38.5465V38.76L25.5476 38.8765C25.7814 38.9347 25.8399 39.0124 25.8594 39.2259C25.8789 39.4588 25.8789 39.9634 25.8789 40.4486V41.3026C25.8789 41.8267 25.8789 42.3507 25.8594 42.6225C25.8399 42.8748 25.8399 42.8942 25.6061 42.9524L25.2163 43.0689V43.3794H27.5353ZM24.5732 43.1465C24.0666 43.0107 23.9302 42.8942 23.6963 42.6225L22.3517 41.0309C22.0594 40.6621 21.923 40.5263 21.7866 40.4292C21.8645 40.371 21.962 40.2934 22.0984 40.1769L23.3066 39.1094C23.6963 38.76 23.7548 38.7406 24.0081 38.6824L24.4173 38.5853V38.2748H22.0594V38.5853L22.3322 38.6436C22.7999 38.7406 22.7609 38.8959 22.605 39.0512C22.0789 39.6334 21.3968 40.371 20.8512 40.7786C20.9486 40.8562 21.0266 40.9339 21.1825 41.128L22.1958 42.409C22.8389 43.263 23.0532 43.4377 24.4758 43.4183L24.5732 43.1465ZM21.4943 43.3794V43.0689L21.0655 42.933C20.8707 42.8554 20.8512 42.8554 20.8317 42.6031C20.8122 42.3313 20.8122 41.8267 20.8122 41.3026V35.5381H20.6953C20.2471 35.5381 19.682 35.6157 19.0389 35.8486V36.0621L19.4676 36.1786C19.7014 36.2368 19.7599 36.3145 19.7794 36.528C19.7989 36.7609 19.7989 37.2655 19.7989 37.7507V41.3221C19.7989 41.8461 19.7989 42.3507 19.7794 42.6225C19.7599 42.8748 19.7404 42.8942 19.5261 42.9524L19.1168 43.0689V43.3794H21.4943ZM18.5517 41.8655C18.5517 41.2056 18.0645 40.7398 17.2461 40.4098L16.9148 40.274C16.1353 39.9634 15.9599 39.6529 15.9599 39.3229C15.9599 38.9541 16.2522 38.6436 16.8758 38.6436C17.0707 38.6436 17.285 38.6824 17.4799 38.7406C17.6943 38.8377 17.7722 39.0123 17.8891 39.4394L17.9671 39.6917H18.2789C18.3179 39.2258 18.3179 38.7794 18.2594 38.2942C17.7332 38.2748 17.4214 38.1972 16.9343 38.1972C15.7261 38.1972 15.0635 38.9153 15.0635 39.6917C15.0635 40.274 15.3558 40.798 16.2132 41.1474L16.525 41.2832C17.3435 41.6132 17.5579 41.9043 17.5579 42.2343C17.5579 42.6419 17.2266 42.9913 16.5835 42.9913C16.2522 42.9913 15.9404 42.933 15.7455 42.836C15.4922 42.7389 15.4338 42.5837 15.3753 42.2149L15.2973 41.8849H15.005C14.9466 42.2731 14.9271 42.8166 15.005 43.3212C15.5117 43.3988 16.0379 43.4765 16.564 43.4765C17.9086 43.4765 18.5517 42.6419 18.5517 41.8655ZM14.1671 43.0689L13.7773 42.9524C13.563 42.8748 13.5435 42.8554 13.524 42.6225C13.5045 42.3507 13.5045 41.8267 13.5045 41.3026V35.5381H13.3876C12.9394 35.5381 12.3743 35.6157 11.7312 35.8486V36.0621L12.1599 36.1786C12.3938 36.2368 12.4522 36.3145 12.4717 36.528C12.4912 36.7609 12.4912 37.2655 12.4912 37.7507V41.3026C12.4912 41.8267 12.4912 42.3507 12.4717 42.6225C12.4522 42.8748 12.4327 42.8942 12.2184 42.9524L11.8091 43.0689V43.3794H14.1281V43.0689H14.1671ZM10.1917 40.9921C10.1917 42.1567 9.72401 42.933 8.86658 42.933C7.83375 42.933 7.32709 41.9431 7.32709 40.7204C7.32709 39.7499 7.58042 38.7406 8.65222 38.7406C9.19786 38.7406 9.54863 38.9347 9.84093 39.3811C10.0943 39.7499 10.1917 40.2545 10.1917 40.9921ZM11.3025 40.6815C11.3025 40.1575 11.205 39.6334 10.9712 39.2453C10.5425 38.5271 9.87991 38.1777 8.92504 38.1777C8.34042 38.1777 7.79478 38.3524 7.34658 38.6436C6.60606 39.1482 6.27478 39.9052 6.27478 40.8951C6.27478 42.4478 7.13222 43.4571 8.74965 43.4571C10.1332 43.4571 11.3025 42.4672 11.3025 40.6815ZM5.57324 38.236C5.57324 37.3432 5.04709 36.6056 4.1117 36.3533C3.64401 36.2174 3.21529 36.1786 2.31888 36.1786H0.175293V36.528L0.467601 36.5862C1.01324 36.7026 1.0717 36.7221 1.0717 36.955C1.09119 37.1879 1.09119 37.5955 1.09119 38.0807V41.4579C1.09119 41.9431 1.09119 42.3507 1.0717 42.5837C1.05222 42.7972 1.01324 42.836 0.467601 42.9524L0.175293 43.0107V43.36H3.11786V43.0107L2.82555 42.9524C2.27991 42.836 2.22145 42.8166 2.22145 42.5837C2.20196 42.3507 2.20196 41.9431 2.20196 41.4579V36.7221C2.24093 36.7221 2.43581 36.7026 2.5917 36.7026C3.44914 36.7026 4.01427 37.0908 4.2676 37.7313C4.36504 37.9448 4.38452 38.1777 4.38452 38.4495C4.38452 38.9929 4.20914 39.5558 3.74145 39.8664C3.44914 40.0605 3.0594 40.1187 2.57222 40.0799V40.4486C4.44299 40.7786 5.57324 39.6529 5.57324 38.236Z" fill="#626769"/>
</g>
<defs>
<clipPath id="clip0_4527_689">
<rect width="114" height="46" fill="white"/>
</clipPath>
</defs>
</svg>
